<svg width="27" height="26" viewBox="0 0 27 26" fill="none" xmlns="http://www.w3.org/2000/svg">
<path fill-rule="evenodd" clip-rule="evenodd" d="M24.75 13C24.75 18.98 19.71 23.8333 13.5 23.8333C7.29 23.8333 2.25 18.98 2.25 13C2.25 7.01996 7.29 2.16663 13.5 2.16663C19.71 2.16663 24.75 7.01996 24.75 13ZM10.125 15.4375C10.9012 15.4375 11.5312 14.8308 11.5312 14.0833C11.5312 13.3358 10.9012 12.7291 10.125 12.7291C9.34875 12.7291 8.71875 13.3358 8.71875 14.0833C8.71875 14.8308 9.34875 15.4375 10.125 15.4375ZM15.4688 14.0833C15.4688 13.3358 16.0988 12.7291 16.875 12.7291C17.6512 12.7291 18.2812 13.3358 18.2812 14.0833C18.2812 14.8308 17.6512 15.4375 16.875 15.4375C16.0988 15.4375 15.4688 14.8308 15.4688 14.0833ZM19.6875 8.66663C16.425 8.66663 13.5675 6.97663 11.9925 4.46329C12.4763 4.38746 12.9825 4.33329 13.5 4.33329C16.7625 4.33329 19.62 6.02329 21.195 8.53663C20.7113 8.61246 20.205 8.66663 19.6875 8.66663ZM4.9725 10.2591C6.89625 9.20829 8.38125 7.49663 9.09 5.44913C7.16625 6.49996 5.68125 8.21163 4.9725 10.2591ZM22.1287 10.5733C22.365 11.3425 22.5 12.155 22.5 13C22.5 17.7775 18.4613 21.6666 13.5 21.6666C8.53875 21.6666 4.5 17.7775 4.5 13C4.5 12.9815 4.50131 12.963 4.50259 12.945C4.50506 12.9101 4.50741 12.8768 4.5 12.8483C7.425 11.7866 9.77625 9.60913 10.9575 6.83579C13.0275 9.27329 16.1663 10.8333 19.6875 10.8333C20.5312 10.8333 21.3412 10.7358 22.1287 10.5733Z" fill="#56CCF2"/>
</svg>
