<svg width="51" height="43" viewBox="0 0 51 43" fill="none" xmlns="http://www.w3.org/2000/svg">
<path fill-rule="evenodd" clip-rule="evenodd" d="M50.0705 26.0132C50.0705 31.3457 48.5263 36.3034 45.8772 40.43C41.2926 33.4364 34.1865 28.947 26.2088 28.947C17.5692 28.947 9.95173 34.2123 5.45231 42.2212C2.03974 37.7755 0 32.1418 0 26.0132C0 11.6465 11.2087 0 25.0352 0C38.8618 0 50.0705 11.6465 50.0705 26.0132ZM24.8396 25.8176C30.5647 25.8176 35.2058 21.7895 35.2058 16.8205C35.2058 11.8516 30.5647 7.82351 24.8396 7.82351C19.1146 7.82351 14.4735 11.8516 14.4735 16.8205C14.4735 21.7895 19.1146 25.8176 24.8396 25.8176Z" fill="#47C3C3"/>
</svg>
