<svg width="32" height="44" viewBox="0 0 32 44" fill="none" xmlns="http://www.w3.org/2000/svg">
<path fill-rule="evenodd" clip-rule="evenodd" d="M30.4 0H1.6C0.711111 0 0 0.977778 0 2.2V41.8C0 42.7778 0.711111 44 1.6 44H30.4C31.1111 44 32 42.7778 32 41.8V2.2C32 0.977778 31.1111 0 30.4 0ZM10.6667 9.77783H7.11111V14.6667H10.6667V9.77783ZM24.8889 9.77783H14.2222V14.6667H24.8889V9.77783ZM24.8889 19.5555H14.2222V24.4444H24.8889V19.5555ZM14.2222 29.3334H24.8889V34.2223H14.2222V29.3334ZM7.11111 19.5555H10.6667V24.4444H7.11111V19.5555ZM10.6667 29.3334H7.11111V34.2223H10.6667V29.3334ZM3.55556 39.1111H28.4444V4.88892H3.55556V39.1111Z" fill="#47C3C3" fill-opacity="0.54"/>
</svg>
