<svg width="42" height="46" viewBox="0 0 42 46" fill="none" xmlns="http://www.w3.org/2000/svg">
<path d="M2 12.3333H11.0532M2 32.459L11.0532 22.3961M11.0532 22.3961L20.1064 12.3333H11.0532M11.0532 22.3961L15.4835 26.3338M11.0532 12.3333V5.77051" stroke="#47C3C3" stroke-width="3"/>
<path d="M40.8929 42.885C41.0129 43.125 41.0729 43.38 41.0729 43.65C41.0729 44.1 40.8929 44.475 40.5329 44.775C40.2029 45.075 39.7979 45.225 39.3179 45.225C38.5679 45.225 38.0429 44.865 37.7429 44.145L34.5479 36.855H17.5829L14.3429 44.145C14.0429 44.865 13.5179 45.225 12.7679 45.225C12.2879 45.225 11.8679 45.075 11.5079 44.775C11.1479 44.445 10.9679 44.055 10.9679 43.605C10.9679 43.365 11.0279 43.125 11.1479 42.885L24.0179 14.265C24.1979 13.845 24.4679 13.53 24.8279 13.32C25.1879 13.11 25.5779 13.005 25.9979 13.005C26.4479 13.005 26.8529 13.125 27.2129 13.365C27.5729 13.575 27.8429 13.875 28.0229 14.265L40.8929 42.885ZM18.9329 33.795H33.1979L26.0429 17.64L18.9329 33.795Z" fill="#47C3C3"/>
</svg>
