<svg width="39" height="36" viewBox="0 0 39 36" fill="none" xmlns="http://www.w3.org/2000/svg">
<ellipse cx="19.3814" cy="18" rx="18.9209" ry="18" fill="#7BCBDD"/>
<g clip-path="url(#clip0)">
<path d="M24.9546 5.1026C23.9381 5.1026 23.1139 5.8866 23.1139 6.85375C23.1139 7.39512 23.3722 7.87917 23.7779 8.20038H25.1703L24.9546 5.1026Z" fill="#61362B"/>
<path d="M25.2364 17.914V29.8974H18.8558L18.397 23.9057L18.8558 17.914H25.2364Z" fill="#E06379"/>
<path d="M6.65808 17.914H13.0956V29.8974H6.65808V17.914Z" fill="#6B66D0"/>
<path d="M8.92621 21.4877C8.07017 22.3021 6.68225 22.3021 5.82626 21.4877L5.30719 20.9939C4.45115 20.1796 4.45115 18.8592 5.30719 18.0449C6.16324 17.2305 7.55115 17.2305 8.40714 18.0449L8.92621 18.5387C9.7822 19.353 9.7822 20.6734 8.92621 21.4877Z" fill="#B26E5A"/>
<path d="M24.9546 17.914H31.0534V29.8974H24.9546V17.914Z" fill="#C63C50"/>
<path d="M28.7853 21.4877C29.6413 22.3021 31.0293 22.3021 31.8853 21.4877L32.4043 20.9939C33.2604 20.1796 33.2604 18.8592 32.4043 18.0449C31.5483 17.2305 30.1604 17.2305 29.3044 18.0449L28.7853 18.5387C27.9293 19.353 27.9293 20.6734 28.7853 21.4877Z" fill="#F1CBBC"/>
<path d="M12.757 17.914H18.8558V29.8974H12.757V17.914Z" fill="#524798"/>
<path d="M24.9546 5.1026V8.20038H26.1314C26.5371 7.87917 26.7953 7.39512 26.7953 6.85375C26.7953 5.8866 25.9712 5.1026 24.9546 5.1026Z" fill="#4D2C21"/>
<path d="M12.7579 7.71692C10.5064 7.71692 8.68127 9.45325 8.68127 11.5951V14.0358C8.68127 16.1777 10.5064 17.914 12.7579 17.914L13.3283 12.8154L12.7579 7.71692Z" fill="#DEACA0"/>
<path d="M12.757 7.71692V17.9141C15.0084 17.9141 16.8336 16.1777 16.8336 14.0359V11.5952C16.8336 9.45325 15.0085 7.71692 12.757 7.71692Z" fill="#D5998A"/>
<path d="M12.757 7.71692C10.5055 7.71692 8.6803 9.45325 8.6803 11.5951V12.2327H11.7317L12.757 11.638L13.0956 9.97479L12.757 7.71692Z" fill="#A45D4E"/>
<path d="M12.757 7.71692V11.638L13.7822 12.2327H16.8336V11.5951C16.8336 9.45325 15.0085 7.71692 12.757 7.71692Z" fill="#8F5041"/>
<path d="M25.5251 11.519L24.9547 17.914C22.7032 17.914 20.8781 16.1776 20.8781 14.0358V12.2327L25.5251 11.519Z" fill="#B26E5A"/>
<path d="M24.9547 11.4463V17.9141C27.2062 17.9141 29.0313 16.1777 29.0313 14.0359V12.2328L24.9547 11.4463Z" fill="#A45D4E"/>
<path d="M24.9547 7.71692C22.7032 7.71692 20.8781 9.45325 20.8781 11.5951V12.2327H24.9547V11.638L25.2933 9.97479L24.9547 7.71692Z" fill="#774132"/>
<path d="M24.9547 7.71692V11.638V12.2327H29.0313V11.5951C29.0313 9.45325 27.2062 7.71692 24.9547 7.71692Z" fill="#61362B"/>
</g>
<defs>
<clipPath id="clip0">
<rect width="28.3814" height="27" fill="white" transform="translate(4.66516 4)"/>
</clipPath>
</defs>
</svg>
