<svg width="39" height="36" viewBox="0 0 39 36" fill="none" xmlns="http://www.w3.org/2000/svg">
<ellipse cx="19.6372" cy="18" rx="18.9209" ry="18" fill="#7BCBDD"/>
<path d="M14.7279 4C11.5645 4 9 6.43963 9 9.44908V17L15.441 18.3466L14.7279 4Z" fill="#EDB6B6"/>
<path d="M14.7279 4V18.3466L20.4558 17V9.44908C20.4558 6.43963 17.8913 4 14.7279 4Z" fill="#E06379"/>
<path d="M14.7279 30C11.5645 30 9 27.5604 9 24.5509V17H15.441L14.7279 30Z" fill="#C63C50"/>
<path d="M14.7279 30V17H20.4558V24.5509C20.4558 27.5604 17.8913 30 14.7279 30Z" fill="#A1003C"/>
<path d="M16.2557 21.6618C16.2557 26.2669 20.1799 30 25.0206 30L25.9711 22.2369L25.0206 13.3236C23.2842 13.3236 21.6657 13.8039 20.304 14.6326C19.7913 14.9445 20.2211 16.0676 19.7887 16.4712C19.3162 16.9122 17.99 16.642 17.6317 17.1748C16.7607 18.4702 16.2557 20.0099 16.2557 21.6618Z" fill="#EAF1FF"/>
<path d="M25.0205 13.3236V30C26.7569 30 28.3753 29.5197 29.7371 28.691C30.297 28.3503 30.3261 27.5203 30.7896 27.071C31.214 26.6595 32.0813 26.6366 32.4093 26.1488C33.2804 24.8534 33.7853 23.3137 33.7853 21.6618C33.7853 17.0567 29.8612 13.3236 25.0205 13.3236Z" fill="#D5E7FF"/>
<path d="M20.3039 14.6327C19.2312 15.2855 18.3179 16.1544 17.6317 17.1749L25.0205 24.204L25.971 22.2369L25.0205 19.1196L20.3039 14.6327Z" fill="#D5E7FF"/>
<path d="M25.0204 19.1196V24.204L29.7369 28.6909C30.8096 28.0381 31.723 27.1693 32.4091 26.1488L25.0204 19.1196Z" fill="#ACCEFF"/>
</svg>
