<svg width="39" height="36" viewBox="0 0 39 36" fill="none" xmlns="http://www.w3.org/2000/svg">
<ellipse cx="19.3814" cy="18" rx="18.9209" ry="18" fill="#7BCBDD"/>
<path d="M16.5419 18.3676L21.461 11.4204L22.6479 13.0967L17.7288 20.0439L16.5419 18.3676Z" fill="#D5E7FF"/>
<path d="M17.5962 19.8568L22.5153 12.9095L23.5696 14.3985L18.6505 21.3457L17.5962 19.8568Z" fill="#ACCEFF"/>
<path d="M23.2705 8.52652C22.6216 9.44301 22.6216 10.929 23.2705 11.8455L24.6589 10.4874L25.6206 8.52652C24.9716 7.60997 23.9195 7.60997 23.2705 8.52652Z" fill="#E06379"/>
<path d="M25.6206 8.52649L23.2705 11.8455C23.9194 12.762 24.9716 12.762 25.6206 11.8455C26.2696 10.9289 26.2696 9.44298 25.6206 8.52649Z" fill="#C63C50"/>
<path d="M13.7685 17.938L13.6097 18.1622L12.819 23.3697L11.165 25.7055L12.0387 27.7081L16.974 21.3407L13.7685 17.938Z" fill="#D5E7FF"/>
<path d="M18.9565 25.2651L16.7605 21.0393L12.0386 27.7081L13.4565 28.9419L15.1105 26.606L18.7977 25.4893L18.9565 25.2651Z" fill="#ACCEFF"/>
<path d="M12.5241 27.6251L11.165 25.7056L9.47459 28.0929C8.8418 28.9866 8.8418 30.4355 9.47459 31.3292L12.5241 27.6251Z" fill="#6B66D0"/>
<path d="M13.4566 28.9419L12.3108 27.3237L9.47461 31.3292C10.1074 32.2229 11.1333 32.2229 11.7661 31.3292L13.4566 28.9419Z" fill="#524798"/>
<path d="M27.7511 5.51747C26.3184 3.49418 23.9957 3.49418 22.563 5.51747L21.8514 6.52239L24.2156 11.1133L27.7511 5.51747Z" fill="#D5E7FF"/>
<path d="M27.751 5.51746L24.0359 10.7644L27.0395 13.8495L27.751 12.8446C29.1837 10.8212 29.1837 7.5408 27.751 5.51746Z" fill="#ACCEFF"/>
<path d="M13.7673 17.9379L21.8491 6.52402L24.6561 10.4883L16.5743 21.9021L13.7673 17.9379Z" fill="#EAF1FF"/>
<path d="M16.3608 21.6014L24.4426 10.1876L27.0363 13.8506L18.9545 25.2644L16.3608 21.6014Z" fill="#D5E7FF"/>
</svg>
