<svg width="30" height="28" viewBox="0 0 30 28" fill="none" xmlns="http://www.w3.org/2000/svg">
<g clip-path="url(#clip0)">
<ellipse cx="15.0093" cy="12" rx="18.9209" ry="18" fill="#7BCBDD"/>
<path d="M13.7491 3.89394C10.6709 0.96553 5.68005 0.96553 2.60176 3.89394C-0.476467 6.82234 -0.476467 11.5703 2.60176 14.4987L3.86202 15.6976L15.0094 26.3024L15.8272 14.5303L15.0094 5.09285L13.7491 3.89394Z" fill="#E06379"/>
<path d="M27.417 3.89398C24.3387 0.965517 19.3479 0.965517 16.2697 3.89398L15.0094 5.09284V26.3024L26.1567 15.6976L27.417 14.4987C30.4952 11.5703 30.4952 6.82238 27.417 3.89398Z" fill="#C63C50"/>
<path d="M11.8624 14.3705C10.6232 15.5493 10.6232 17.4606 11.8624 18.6395C12.7142 19.4499 13.93 19.7033 15.0093 19.3994L15.7633 15.4502L15.0093 11.3766L11.8624 14.3705Z" fill="#F6DCCD"/>
<path d="M24.6397 6.48399C23.4005 5.30514 21.3914 5.30514 20.1522 6.48399L15.0093 11.3767V19.3994C15.5 19.2613 15.9624 19.008 16.3498 18.6395L24.6398 10.7531C25.8789 9.57421 25.8789 7.66288 24.6397 6.48399Z" fill="#F1CBBC"/>
<path d="M13.7637 12.5617L15.0094 13.7469L15.6567 12.5618L15.0094 11.3766L13.7637 12.5617Z" fill="#EEBCA8"/>
<path d="M22.7386 12.5617L18.2511 8.29272L15.0094 11.3767V13.7469L18.2511 16.8308L22.7386 12.5617Z" fill="#E9A48C"/>
</g>
<defs>
<clipPath id="clip0">
<rect width="29.4326" height="28" fill="white" transform="translate(0.293091)"/>
</clipPath>
</defs>
</svg>
