<svg width="95" height="95" viewBox="0 0 95 95" fill="none" xmlns="http://www.w3.org/2000/svg">
<g clip-path="url(#clip0)">
<path fill-rule="evenodd" clip-rule="evenodd" d="M3.01957 93.6084H71.7031C72.2816 93.6084 72.7498 93.1351 72.7498 92.5565V51.3475L65.0499 66.3584L21.007 10.1437V2.60136H3.01957C2.44104 2.60136 1.9729 3.07469 1.9729 3.64803V92.5565C1.9729 93.1351 2.44104 93.6084 3.01957 93.6084Z" fill="#E29D7B"/>
<path fill-rule="evenodd" clip-rule="evenodd" d="M65.0498 45.3671V11.2428C65.0498 10.638 64.5555 10.1437 63.9506 10.1437C46.3734 10.1437 28.3492 10.1437 10.7722 10.1437C10.1673 10.1437 9.67297 10.6381 9.67297 11.2428V84.9669C9.67297 85.5718 10.1675 86.0661 10.7722 86.0661H63.9506C64.5555 86.0661 65.0498 85.5716 65.0498 84.9669V45.3671Z" fill="#FAF5DC"/>
<path fill-rule="evenodd" clip-rule="evenodd" d="M34.2924 31.7922V27.6424C34.2924 26.6642 35.0919 25.8647 36.065 25.8647H38.6578C39.6308 25.8647 40.4303 26.6642 40.4303 27.6424V31.7922H44.5853C45.5583 31.7922 46.3578 32.5917 46.3578 33.5699V36.1577C46.3578 37.1359 45.5583 37.9354 44.5853 37.9354H40.4303V42.0852C40.4303 43.0634 39.6308 43.8629 38.6578 43.8629H36.065C35.0919 43.8629 34.2924 43.0634 34.2924 42.0852V37.9354H30.1375C29.1645 37.9354 28.3649 37.1359 28.3649 36.1577V33.5699C28.3649 32.5917 29.1645 31.7922 30.1375 31.7922H34.2924ZM53.7578 34.8637C53.7578 25.8066 46.4155 18.4695 37.364 18.4695C28.3072 18.4695 20.965 25.8066 20.965 34.8637C20.965 43.9208 28.3072 51.2633 37.364 51.2633C46.4155 51.2633 53.7578 43.9208 53.7578 34.8637Z" fill="#F37C7C"/>
<path fill-rule="evenodd" clip-rule="evenodd" d="M72.7497 30.3562V3.64803C72.7497 3.07469 72.2816 2.60136 71.7031 2.60136H53.7156L49.6974 6.37242L53.7156 10.1435H63.9505C64.5554 10.1435 65.0497 10.638 65.0497 11.2427V45.3669L69.92 42.9528L72.7497 30.3562Z" fill="#CE8B6B"/>
<path fill-rule="evenodd" clip-rule="evenodd" d="M63.6928 68.9988L60.4108 64.628H55.1777C55.083 64.8384 55.02 65.0173 54.9673 65.2329C54.9515 65.3171 54.9305 65.4064 54.9148 65.5064L53.8313 72.0915L52.7006 78.9867C52.5429 79.9492 52.7849 80.0755 53.4738 79.3864L63.1302 69.7192C63.3826 69.4667 63.5351 69.2723 63.6928 68.9988Z" fill="#FFE58A"/>
<path fill-rule="evenodd" clip-rule="evenodd" d="M53.7155 10.1437V2.31729C53.7155 1.80704 53.2947 1.3916 52.7846 1.3916H21.9378C21.4276 1.3916 21.007 1.80704 21.007 2.31729V10.4275C21.007 10.9378 21.4278 11.3532 21.9378 11.3532H52.7846C53.5368 11.3532 53.7155 10.7537 53.7155 10.1437Z" fill="#FFE58A"/>
<path fill-rule="evenodd" clip-rule="evenodd" d="M46.3577 36.1577V33.5699C46.3577 32.5917 45.5582 31.7922 44.5852 31.7922H40.4302V27.6424C40.4302 26.6642 39.6307 25.8647 38.6577 25.8647H36.0649C35.0919 25.8647 34.2923 26.6642 34.2923 27.6424V31.7922H30.1374C29.1644 31.7922 28.3649 32.5917 28.3649 33.5699V36.1577C28.3649 37.1359 29.1644 37.9354 30.1374 37.9354H34.2923V42.0852C34.2923 43.0634 35.0919 43.8629 36.0649 43.8629H38.6577C39.6307 43.8629 40.4302 43.0634 40.4302 42.0852V37.9354H44.5852C45.5582 37.9354 46.3577 37.1359 46.3577 36.1577Z" fill="#F9F7F8"/>
<path fill-rule="evenodd" clip-rule="evenodd" d="M86.1298 25.2702L89.496 18.7063L86.1298 14.5933L80.9703 14.3302L77.6042 20.8994L80.2498 25.7068L86.1298 25.2702Z" fill="#F9F7F8"/>
<path fill-rule="evenodd" clip-rule="evenodd" d="M89.4959 18.7063L92.2255 13.3835C93.4299 11.0376 92.4938 8.13437 90.1533 6.92999C87.8076 5.7308 84.9044 6.66169 83.7052 9.00756L80.9702 14.3303L89.4959 18.7063Z" fill="#7E707D"/>
<path fill-rule="evenodd" clip-rule="evenodd" d="M86.1297 25.2702L77.604 20.8994C70.125 35.4738 62.6514 50.0535 55.1777 64.6278L63.6928 68.9986L86.1297 25.2702Z" fill="#F37C7C"/>
<path fill-rule="evenodd" clip-rule="evenodd" d="M58.5439 58.0534L65.0499 45.3671V11.2428C65.0499 10.638 64.5556 10.1437 63.9507 10.1437H53.7158V10.4277C53.7158 10.6329 53.6475 10.8222 53.5317 10.9747C53.3949 11.2061 53.1636 11.3534 52.7849 11.3534H44.4223C47.1518 15.3876 49.3767 20.2422 50.9387 25.6648C52.7164 28.2894 53.7577 31.4558 53.7577 34.8639C53.7577 36.2366 53.5894 37.5725 53.2738 38.8454C53.4053 40.6073 53.4736 42.4008 53.4736 44.2154C53.4736 46.5717 53.3578 48.8912 53.137 51.1477C51.5749 67.0212 44.7429 80.165 35.5231 86.0663H63.9505C64.5554 86.0663 65.0497 85.5718 65.0497 84.9671V66.3586L63.8032 68.7885C63.7665 68.8674 63.7295 68.9359 63.6928 68.9989C63.5351 69.2724 63.3826 69.4671 63.13 69.7194L53.4736 79.3866C52.7847 80.0755 52.5427 79.9494 52.7004 78.9869L53.8312 72.0916L54.9146 65.5066C54.9303 65.4066 54.9513 65.3171 54.9671 65.2331C55.0196 65.0175 55.0829 64.8386 55.1775 64.6282C55.2038 64.5599 55.2406 64.4915 55.2775 64.4178L58.5439 58.0534Z" fill="#F5EBCD"/>
<path fill-rule="evenodd" clip-rule="evenodd" d="M53.7578 34.8637C53.7578 31.4554 52.7165 28.2892 50.9388 25.6647C47.9882 21.3203 43.0076 18.4695 37.3641 18.4695C36.0913 18.4695 34.8502 18.6115 33.6616 18.885C40.3359 20.4261 45.4481 26.0328 46.2474 32.9544C46.321 33.1491 46.3578 33.3541 46.3578 33.5699V34.8637V36.1575C46.3578 36.3731 46.321 36.5783 46.2474 36.773C46.0791 38.2457 45.711 39.6605 45.1744 40.9912C43.1968 45.8984 38.9103 49.6327 33.6614 50.8424C34.85 51.1159 36.0913 51.2633 37.364 51.2633C42.0344 51.2633 46.2472 49.3067 49.2345 46.172C51.1596 44.1524 52.5744 41.6382 53.2739 38.8454C53.5895 37.5725 53.7578 36.2366 53.7578 34.8637Z" fill="#EE6161"/>
<path fill-rule="evenodd" clip-rule="evenodd" d="M89.4959 18.7063L92.2255 13.3835C93.4298 11.0376 92.4938 8.13437 90.1533 6.92999C89.2328 6.46185 88.2336 6.31991 87.2816 6.45666C88.4177 8.65001 88.7594 11.3534 85.6617 16.7391L89.4959 18.7063Z" fill="#6A5D6A"/>
<path fill-rule="evenodd" clip-rule="evenodd" d="M87.8128 21.9882L89.4959 18.7063L85.6618 16.7391L82.2904 23.3032L86.1297 25.2702L87.8128 21.9882Z" fill="#F0F0F0"/>
<path fill-rule="evenodd" clip-rule="evenodd" d="M72.7498 51.3421L86.0878 25.349L86.1299 25.2702L82.2906 23.303L81.0493 25.7329L73.8437 39.7709L66.1439 54.7818L62.3834 62.1137L60.8055 65.1906L59.9693 66.821C59.9325 66.8947 59.8956 66.9683 59.8589 67.0314L63.693 68.9986L65.0499 66.3531V66.3479L72.7498 51.3421Z" fill="#EE6161"/>
<path fill-rule="evenodd" clip-rule="evenodd" d="M53.4737 79.3864L63.1301 69.7192C63.3826 69.4667 63.5351 69.2723 63.6929 68.9988L59.8587 67.0316C59.8587 67.0316 53.2948 78.082 52.7005 78.9867C52.5428 79.9492 52.7847 80.0754 53.4737 79.3864Z" fill="#FFD772"/>
<path fill-rule="evenodd" clip-rule="evenodd" d="M72.7497 92.5565V51.3475L65.0499 66.3584V84.9669C65.0499 85.5718 64.5556 86.0661 63.9507 86.0661H45.0218C42.1712 89.1955 38.9787 91.7518 35.5391 93.6084H71.7033C72.2816 93.6084 72.7497 93.1351 72.7497 92.5565Z" fill="#CE8B6B"/>
<path fill-rule="evenodd" clip-rule="evenodd" d="M53.7157 10.1437V2.60137V2.31729C53.7157 1.80704 53.2949 1.3916 52.7848 1.3916H35.418C37.8531 3.90576 39.3363 6.90902 39.515 10.1437C39.536 10.5487 39.536 10.9536 39.5202 11.3534H44.422H52.7846C53.0896 11.3534 53.3631 11.2061 53.5314 10.9747C53.6684 10.7485 53.7157 10.4487 53.7157 10.1437Z" fill="#FFD772"/>
<path d="M30.1375 39.327H32.901V42.0852C32.901 43.8329 34.3202 45.2545 36.0649 45.2545H38.6579C40.4026 45.2545 41.8219 43.8329 41.8219 42.0852V39.327H44.5854C46.3301 39.327 47.7494 37.9054 47.7494 36.1577V33.5699C47.7494 31.8222 46.3301 30.4006 44.5854 30.4006H41.8219V27.6424C41.8219 25.8947 40.4026 24.4731 38.6579 24.4731H36.0649C34.3202 24.4731 32.901 25.8947 32.901 27.6424V30.4006H30.1375C28.3928 30.4006 26.9735 31.8222 26.9735 33.5699V36.1577C26.9735 37.9054 28.3928 39.327 30.1375 39.327ZM29.7567 33.5699C29.7567 33.3606 29.9311 33.1838 30.1375 33.1838H34.2926C35.0611 33.1838 35.6842 32.5609 35.6842 31.7922V27.6424C35.6842 27.4331 35.8586 27.2563 36.0649 27.2563H38.6579C38.8643 27.2563 39.0387 27.4331 39.0387 27.6424V31.7922C39.0387 32.5609 39.6618 33.1838 40.4303 33.1838H44.5854C44.7918 33.1838 44.9662 33.3606 44.9662 33.5699V36.1577C44.9662 36.367 44.7918 36.5438 44.5854 36.5438H40.4303C39.6618 36.5438 39.0387 37.1667 39.0387 37.9354V42.0852C39.0387 42.2945 38.8643 42.4713 38.6579 42.4713H36.0649C35.8586 42.4713 35.6842 42.2945 35.6842 42.0852V37.9354C35.6842 37.1667 35.0611 36.5438 34.2926 36.5438H30.1375C29.9311 36.5438 29.7567 36.367 29.7567 36.1577V33.5699Z" fill="black"/>
<path d="M37.364 52.6549C47.1709 52.6549 55.1494 44.6737 55.1494 34.8637C55.1494 25.0566 47.1709 17.0779 37.364 17.0779C27.5541 17.0779 19.5734 25.0566 19.5734 34.8637C19.5734 44.6739 27.5543 52.6549 37.364 52.6549ZM37.364 19.8611C45.6362 19.8611 52.3662 26.5913 52.3662 34.8637C52.3662 43.1391 45.6362 49.8717 37.364 49.8717C29.0888 49.8717 22.3566 43.1391 22.3566 34.8637C22.3566 26.5913 29.0889 19.8611 37.364 19.8611Z" fill="black"/>
<path d="M17.9092 73.4829H32.7093C33.4779 73.4829 34.1009 72.86 34.1009 72.0913C34.1009 71.3225 33.4779 70.6997 32.7093 70.6997H17.9092C17.1406 70.6997 16.5176 71.3225 16.5176 72.0913C16.5176 72.86 17.1406 73.4829 17.9092 73.4829Z" fill="black"/>
<path d="M17.9092 59.7658H23.8786C24.6471 59.7658 25.2702 59.1429 25.2702 58.3742C25.2702 57.6054 24.6471 56.9826 23.8786 56.9826H17.9092C17.1406 56.9826 16.5176 57.6054 16.5176 58.3742C16.5176 59.1429 17.1406 59.7658 17.9092 59.7658Z" fill="black"/>
<path d="M17.9092 66.6243H41.7924C42.5609 66.6243 43.184 66.0014 43.184 65.2327C43.184 64.464 42.5609 63.8411 41.7924 63.8411H17.9092C17.1406 63.8411 16.5176 64.464 16.5176 65.2327C16.5176 66.0014 17.1406 66.6243 17.9092 66.6243Z" fill="black"/>
<path d="M94.1743 25.3537C93.7622 24.0699 92.8773 23.0254 91.6833 22.4126L89.6854 21.3859L93.4633 14.0192C95.02 10.9875 93.8205 7.2521 90.7864 5.69091C89.3209 4.94186 87.6471 4.80808 86.0728 5.3148C84.496 5.8219 83.2152 6.90865 82.4667 8.37243L74.141 24.6005V3.64804C74.141 2.30356 73.0472 1.20958 71.7027 1.20958H54.8239C54.4298 0.489658 53.6635 0 52.7847 0H21.9379C21.0592 0 20.2931 0.489658 19.8986 1.20977H3.01957C1.6751 1.20977 0.581299 2.30375 0.581299 3.64822V92.5567C0.581299 93.9042 1.6751 95.0002 3.01957 95.0002H71.7031C73.0476 95.0002 74.1414 93.9042 74.1414 92.5567V51.6848L87.3553 25.9265C87.3592 25.919 87.3644 25.9127 87.3681 25.9053L88.4157 23.8626L90.4121 24.8885C90.9449 25.1618 91.3399 25.629 91.5245 26.2044C91.7082 26.7766 91.6598 27.3826 91.3872 27.912L80.7368 48.6769C80.3861 49.3608 80.6561 50.1995 81.34 50.5504C81.5434 50.6547 81.7603 50.704 81.974 50.704C82.4795 50.704 82.9669 50.4277 83.2135 49.9472L93.8631 29.1841C94.4749 27.9946 94.5855 26.6343 94.1743 25.3537ZM55.1074 3.99297H71.3582V30.0202L66.4415 39.605V11.2428C66.4415 9.86942 65.3242 8.75206 63.9506 8.75206H55.1074V3.99297ZM71.3582 92.2168H3.3645V3.99297H19.6153V8.75206H10.7721C9.39867 8.75206 8.28131 9.86924 8.28131 11.2428V44.794C8.28131 45.5627 8.90438 46.1856 9.67291 46.1856C10.4414 46.1856 11.0645 45.5627 11.0645 44.794V11.5353H19.8977C20.0049 11.7312 20.1409 11.913 20.3046 12.075C20.7417 12.5077 21.3175 12.745 21.9235 12.745C21.9312 12.745 21.9394 12.7448 21.9474 12.7448H34.5278C35.2964 12.7396 35.9154 12.1125 35.9102 11.344C35.905 10.5784 35.283 9.96164 34.5187 9.96164C34.5156 9.96164 22.3988 9.95867 22.3988 9.95867V2.7832H52.3242V9.95849C52.3242 9.95849 40.9463 9.96164 40.9429 9.96164C40.179 9.96164 39.5569 10.5782 39.5515 11.3432C39.5461 12.1119 40.1648 12.7393 40.9333 12.7448H52.7706C53.3848 12.7452 53.9756 12.5133 54.4187 12.075C54.5823 11.913 54.7183 11.7312 54.8256 11.5353H63.6585V45.0307L57.5277 56.9826H32.4306C31.6621 56.9826 31.039 57.6054 31.039 58.3742C31.039 59.1429 31.6621 59.7658 32.4306 59.7658H56.0999L54.0364 63.7886C54.0273 63.8066 54.0195 63.8235 54.0106 63.8411H49.6712C48.9025 63.8411 48.2796 64.464 48.2796 65.2327C48.2796 66.0014 48.9025 66.6243 49.6712 66.6243H53.3211L52.6517 70.6997H40.3041C39.5356 70.6997 38.9125 71.3225 38.9125 72.0913C38.9125 72.86 39.5356 73.4829 40.3041 73.4829H52.1945L51.525 77.5582H17.9092C17.1406 77.5582 16.5175 78.1811 16.5175 78.9498C16.5175 79.7185 17.1406 80.3414 17.9092 80.3414H51.4456C51.5755 80.6157 51.7895 80.8671 52.1351 81.0443C52.9979 81.487 53.8444 80.9843 54.4584 80.3698L63.6583 71.1595V84.6743H11.0643V51.2158C11.0643 50.447 10.4413 49.8242 9.67272 49.8242C8.90419 49.8242 8.28112 50.447 8.28112 51.2158V84.9667C8.28112 86.3402 9.39849 87.4575 10.7719 87.4575H63.9506C65.324 87.4575 66.4415 86.3403 66.4415 84.9667V66.6943L71.3582 57.11V92.2168ZM56.1318 66.6835L61.4646 69.4174L54.545 76.3449L56.1318 66.6835ZM71.5153 50.7064C71.5142 50.7085 71.5127 50.7101 71.5116 50.7124L63.8602 65.6289C63.824 65.6888 63.7912 65.7509 63.7641 65.8163L63.093 67.1247L57.044 64.0237L78.2072 22.7727L84.2548 25.873L71.5153 50.7064ZM85.525 23.3965L79.4775 20.2962L81.5762 16.2055L87.6219 19.3086L85.525 23.3965ZM82.8468 13.7292L84.9443 9.64102C85.3545 8.83871 86.0581 8.24329 86.9257 7.96404C87.2731 7.85234 87.6288 7.79705 87.982 7.79705C88.5116 7.79705 89.0359 7.92155 89.5167 8.1674C91.184 9.02537 91.844 11.0803 90.9877 12.7484L88.8927 16.8323L82.8468 13.7292Z" fill="black"/>
</g>
<defs>
<clipPath id="clip0">
<rect width="95" height="95" fill="white"/>
</clipPath>
</defs>
</svg>
